<svg id="Layer_1" data-name="Layer 1" xmlns="http://www.w3.org/2000/svg" viewBox="0 0 216.41 232.01"><defs><style>.cls-1{fill:#fcb762;}</style></defs><title>logo</title><path class="cls-1" d="M211.81,139.09c-3.18,16.36-28.5,34.27-57.57,37.75-15.15,1.8-30.08,3.47-46,2.74a271.31,271.31,0,0,1-46.57-6.21,53.11,53.11,0,0,0,.47,7.2c3.38,25.68,25.47,27.22,46.39,27.94a134,134,0,0,0,39.92-5.21l.87,19.09s-14.77,7.93-41.08,9.39a171.84,171.84,0,0,1-53.51-5.91C9.23,213.82,1.41,165.31.21,116.09-.16,101.48.07,87.7.07,76.17c0-50.33,33-65.08,33-65.08C49.67,3.45,78.2.24,107.86,0h.73c29.66.24,58.21,3.45,74.84,11.09,0,0,33,14.75,33,65.08,0,0,.41,37.14-4.6,62.92" transform="translate(0)"/><path d="M177.51,80.08V141H153.37V81.87c0-12.47-5.25-18.8-15.74-18.8-11.61,0-17.42,7.51-17.42,22.35V117.8h-24V85.42c0-14.84-5.82-22.35-17.42-22.35-10.5,0-15.74,6.33-15.74,18.8V141H38.9V80.08q0-18.69,9.55-29.68C55,43.08,63.62,39.33,74.3,39.33c12.35,0,21.71,4.74,27.89,14.24l6,10.08,6-10.08c6.19-9.5,15.54-14.24,27.9-14.24,10.68,0,19.28,3.75,25.85,11.07q9.56,11,9.54,29.68" transform="translate(0)"/></svg>